<?xml version="1.0" encoding="UTF-8"?>
<svg version="1.1" xmlns="http://www.w3.org/2000/svg" width="246" height="243">
<path d="M0 0 C81.18 0 162.36 0 246 0 C246 80.19 246 160.38 246 243 C164.82 243 83.64 243 0 243 C0 162.81 0 82.62 0 0 Z " fill="#FDFDFD" transform="translate(0,0)"/>
<path d="M0 0 C5.83499942 5.06532035 8.49444265 9.88331876 9.4375 17.5625 C8.85068197 34.67802598 -5.79016724 49.32752686 -17.54931641 60.46777344 C-34.38067726 75.89265693 -53.65852758 88.69462074 -73.0625 100.625 C-73.81756836 101.09494385 -74.57263672 101.5648877 -75.35058594 102.04907227 C-79.40532596 104.54143138 -83.41273539 106.77104572 -87.81347656 108.59375 C-92.3495128 110.93378628 -95.40604156 112.63668339 -97.49804688 117.43847656 C-97.86558489 118.79145231 -98.20868087 120.1512289 -98.53125 121.515625 C-98.93648249 123.04576808 -99.34184264 124.57587735 -99.74731445 126.10595703 C-99.95047272 126.90648499 -100.15363098 127.70701294 -100.36294556 128.53179932 C-101.21878102 131.84764415 -102.16039107 135.13648528 -103.10331726 138.42843628 C-103.82711348 140.95541883 -104.54106754 143.48498235 -105.25195312 146.015625 C-105.48793213 146.85544922 -105.72391113 147.69527344 -105.96704102 148.56054688 C-106.20479248 149.40681641 -106.44254395 150.25308594 -106.6875 151.125 C-107.41774413 153.72067054 -108.14826699 156.31626249 -108.87886047 158.91183472 C-109.32768596 160.50675038 -109.77626172 162.10173636 -110.22453308 163.69680786 C-110.62643599 165.12637594 -111.02927342 166.55568173 -111.43319702 167.98468018 C-111.81137628 169.32933112 -112.18476582 170.67533828 -112.55337524 172.02264404 C-114.32602056 178.43249481 -114.32602056 178.43249481 -117 180 C-123.12970069 180.65675365 -123.12970069 180.65675365 -125.6875 178.7265625 C-128.36392883 175.2057841 -127.52352995 171.19821164 -127 167 C-125.70405618 160.57690764 -123.82074841 154.2893667 -122 148 C-121.69513672 146.94022949 -121.39027344 145.88045898 -121.07617188 144.78857422 C-119.0770579 137.85124487 -117.05031317 130.92236207 -115 124 C-115.96421875 124.42152344 -116.9284375 124.84304687 -117.921875 125.27734375 C-119.19784676 125.83089032 -120.47389233 126.38426681 -121.75 126.9375 C-122.38421875 127.21529297 -123.0184375 127.49308594 -123.671875 127.77929688 C-129.02607055 130.09387099 -133.17425846 131.17413864 -139 131.3125 C-140.03125 131.34988281 -141.0625 131.38726562 -142.125 131.42578125 C-145.71742383 130.89375109 -146.83939058 129.86892241 -149 127 C-149.55802097 123.09385318 -149.58392818 120.94888329 -147.5 117.5625 C-145 116 -145 116 -141.3671875 116.1015625 C-136.57500376 116.19129358 -132.94936429 114.75082048 -128.625 112.8125 C-127.51354614 112.31580811 -127.51354614 112.31580811 -126.37963867 111.80908203 C-124.91396844 111.15301249 -123.44964014 110.49393498 -121.98681641 109.83154297 C-120 109 -120 109 -116.88671875 108.16015625 C-113.77538011 107.21117436 -112.24049292 106.38162633 -110 104 C-107.6113473 98.42647703 -106.3198531 92.68282676 -104.93554688 86.79248047 C-103.1584761 79.58866592 -101.08737401 72.46414672 -99.05978394 65.32757568 C-98.32257023 62.72307707 -97.59475698 60.11611945 -96.86938477 57.50830078 C-96.40912209 55.86357734 -95.94875838 54.21888216 -95.48828125 52.57421875 C-95.28221252 51.82898453 -95.0761438 51.08375031 -94.86383057 50.31593323 C-91.15713822 37.15713822 -91.15713822 37.15713822 -88 34 C-84.43975457 33.67034765 -81.8632853 33.62369615 -78.5625 35.0625 C-76.68930073 37.38526709 -76.68228996 38.87107842 -76.75268555 41.79418945 C-77.28171422 46.51262388 -78.78046497 51.0237773 -80.125 55.5625 C-80.76500055 57.78365903 -81.40430881 60.00501763 -82.04296875 62.2265625 C-82.3682959 63.34836914 -82.69362305 64.47017578 -83.02880859 65.62597656 C-84.54243672 70.88448352 -85.99464135 76.15921105 -87.4375 81.4375 C-87.69611816 82.37215088 -87.95473633 83.30680176 -88.22119141 84.26977539 C-88.45628418 85.12821045 -88.69137695 85.98664551 -88.93359375 86.87109375 C-89.14040771 87.62318115 -89.34722168 88.37526855 -89.56030273 89.15014648 C-90.0770834 91.00739943 -90.0770834 91.00739943 -90 93 C-69.98603445 80.92972181 -50.85745915 68.10762955 -33 53 C-32.18015625 52.31164062 -31.3603125 51.62328125 -30.515625 50.9140625 C-28.64228565 49.30938034 -26.81081373 47.67469333 -25 46 C-24.36191406 45.41476563 -23.72382813 44.82953125 -23.06640625 44.2265625 C-15.65960638 37.15184137 -7.49122645 28.99997689 -6.75 18.4375 C-6.71139324 15.12029504 -6.71139324 15.12029504 -8.1875 13.1875 C-16.86924679 7.499459 -28.4270282 9.23133017 -38.125 11.0625 C-56.57297907 14.93890728 -73.93387421 21.06628945 -91 29 C-91.88647217 29.40758545 -92.77294434 29.8151709 -93.6862793 30.23510742 C-146.29083817 53.94088346 -146.29083817 53.94088346 -184.0625 95.125 C-184.371875 96.07375 -184.68125 97.0225 -185 98 C-184.071875 97.938125 -183.14375 97.87625 -182.1875 97.8125 C-179 98 -179 98 -177.125 99.0625 C-175.33169133 102.15097604 -175.57158031 104.51143969 -176 108 C-177.4375 110.4375 -177.4375 110.4375 -180 112 C-184.60635555 112.86258009 -188.65063385 112.51003708 -192.8125 110.3125 C-199.40066241 105.53285276 -199.40066241 105.53285276 -200.44921875 101.1015625 C-201.21629955 91.6579455 -195.3965194 83.48558586 -189.8125 76.375 C-174.23524001 58.24920666 -153.33354712 45.02349858 -132.85205078 33.08691406 C-131.08785991 32.0515624 -129.33839605 30.991237 -127.58984375 29.9296875 C-105.58034661 16.79676305 -81.43565755 7.44984389 -57 0 C-56.14486816 -0.27408691 -55.28973633 -0.54817383 -54.40869141 -0.83056641 C-38.55464689 -5.82840974 -14.53835741 -10.3135356 0 0 Z " fill="#070707" transform="translate(215,21)"/>
<path d="M0 0 C63.03 0 126.06 0 191 0 C191 4.62 191 9.24 191 14 C127.97 14 64.94 14 0 14 C0 9.38 0 4.76 0 0 Z " fill="#0D0D0D" transform="translate(31,225)"/>
<path d="M0 0 C2.91368224 1.98378365 4.63558769 3.41448681 5.4453125 6.9375 C5.66348199 10.77728304 5.23217682 12.63625632 3.125 15.9375 C0.36482531 18.61649308 -0.49114152 18.95288347 -4.375 19.3125 C-8 19 -8 19 -10.375 17.5 C-12.60197192 14.07388935 -13.35281734 11.0848408 -13 7 C-9.62986642 0.60836736 -7.18785883 -0.73096869 0 0 Z " fill="#0B0B0B" transform="translate(163,183)"/>
<path d="M0 0 C-0.598125 0.268125 -1.19625 0.53625 -1.8125 0.8125 C-4.07100952 2.03854802 -5.47062652 2.93534581 -7 5 C-7.25069913 7.62570704 -7.25069913 7.62570704 -7 10 C-6.34 10.33 -5.68 10.66 -5 11 C-5 11.66 -5 12.32 -5 13 C-4.01 13 -3.02 13 -2 13 C-2 13.66 -2 14.32 -2 15 C-4.375 14.6875 -4.375 14.6875 -7 14 C-9.48038907 10.2794164 -9.46337203 8.40203429 -9 4 C-6.40088873 0.24572816 -4.49476261 -0.49941807 0 0 Z " fill="#2D2D2D" transform="translate(75,137)"/>
<path d="M0 0 C0.66 0.99 1.32 1.98 2 3 C4.56282742 3.72965366 4.56282742 3.72965366 7 4 C4.45543849 6.96865509 1.51005335 8.3619751 -2 10 C-1.34 6.7 -0.68 3.4 0 0 Z " fill="#DCDCDC" transform="translate(126,105)"/>
<path d="M0 0 C-1.47089893 3.87782445 -3.42749702 5.04362932 -7 7 C-7.70125 7.5775 -8.4025 8.155 -9.125 8.75 C-10.053125 9.36875 -10.053125 9.36875 -11 10 C-11.99 9.67 -12.98 9.34 -14 9 C-12.04594482 7.49412261 -10.08718716 5.99521356 -8.125 4.5 C-7.56941406 4.07074219 -7.01382813 3.64148438 -6.44140625 3.19921875 C-2.2265625 0 -2.2265625 0 0 0 Z " fill="#D2D2D2" transform="translate(177,98)"/>
<path d="M0 0 C0 3 0 3 -1.53125 4.82421875 C-2.1809375 5.43910156 -2.830625 6.05398437 -3.5 6.6875 C-4.1496875 7.31011719 -4.799375 7.93273437 -5.46875 8.57421875 C-5.9740625 9.04472656 -6.479375 9.51523438 -7 10 C-7.99 9.67 -8.98 9.34 -10 9 C-6.7 6.03 -3.4 3.06 0 0 Z " fill="#E1E1E1" transform="translate(202,76)"/>
<path d="M0 0 C0.33 0 0.66 0 1 0 C1.61538462 7.26153846 1.61538462 7.26153846 -1.5 11 C-2.325 11.66 -3.15 12.32 -4 13 C-3.625 10.5625 -3.625 10.5625 -3 8 C-2.34 7.67 -1.68 7.34 -1 7 C-0.59270772 4.67843403 -0.25561323 2.3431213 0 0 Z " fill="#1C1C1C" transform="translate(167,188)"/>
<path d="M0 0 C0.66 0.33 1.32 0.66 2 1 C-1.49087093 5.0042343 -3.64951939 6.62671065 -9 7 C-6.3765992 4.08511023 -3.28183606 2.11496102 0 0 Z " fill="#282828" transform="translate(136,107)"/>
<path d="M0 0 C0 0.66 0 1.32 0 2 C-6.45 6.09326923 -6.45 6.09326923 -9.234375 5.62109375 C-9.81703125 5.41613281 -10.3996875 5.21117188 -11 5 C-9.54462432 4.16151196 -8.08559627 3.32936066 -6.625 2.5 C-5.81289062 2.0359375 -5.00078125 1.571875 -4.1640625 1.09375 C-2 0 -2 0 0 0 Z " fill="#D3D3D3" transform="translate(103,60)"/>
<path d="M0 0 C0.66 0.33 1.32 0.66 2 1 C0.5625 3 0.5625 3 -2 5 C-5.02824418 5.35442445 -7.96485939 5.23347235 -11 5 C-11 4.67 -11 4.34 -11 4 C-9.741875 3.896875 -8.48375 3.79375 -7.1875 3.6875 C-4.39500343 3.35141192 -3.25566879 3.19974124 -1 1.4375 C-0.67 0.963125 -0.34 0.48875 0 0 Z " fill="#252525" transform="translate(37,128)"/>
<path d="M0 0 C0.33 0.99 0.66 1.98 1 3 C-0.98 4.98 -2.96 6.96 -5 9 C-5.66 8.67 -6.32 8.34 -7 8 C-4.69 5.36 -2.38 2.72 0 0 Z " fill="#383838" transform="translate(30,92)"/>
<path d="M0 0 C1.134375 0.020625 2.26875 0.04125 3.4375 0.0625 C3.4375 0.3925 3.4375 0.7225 3.4375 1.0625 C1.4575 1.0625 -0.5225 1.0625 -2.5625 1.0625 C-2.5625 2.0525 -2.5625 3.0425 -2.5625 4.0625 C-3.2225 4.0625 -3.8825 4.0625 -4.5625 4.0625 C-4.5625 4.7225 -4.5625 5.3825 -4.5625 6.0625 C-5.2225 6.0625 -5.8825 6.0625 -6.5625 6.0625 C-4.25951087 0.07472826 -4.25951087 0.07472826 0 0 Z " fill="#2B2B2B" transform="translate(130.5625,54.9375)"/>
<path d="M0 0 C0.33 0.66 0.66 1.32 1 2 C-0.1875 4.5625 -0.1875 4.5625 -2 7 C-3.32 7.33 -4.64 7.66 -6 8 C-4.02 5.36 -2.04 2.72 0 0 Z " fill="#CFCFCF" transform="translate(213,63)"/>
</svg>
